<?xml version="1.0" encoding="utf-8"?>
<!-- Generator: Adobe Illustrator 18.1.0, SVG Export Plug-In . SVG Version: 6.00 Build 0)  -->
<svg version="1.1" id="Layer_1" xmlns="http://www.w3.org/2000/svg" xmlns:xlink="http://www.w3.org/1999/xlink" x="0px" y="0px"
	 viewBox="0 0 32 32" enable-background="new 0 0 32 32" xml:space="preserve">
<path fill="#FED800" d="M16,6l2.7,6.4l7.3,0.4l-5.6,4.4l1.8,6.7L16,20.3L9.8,24l1.8-6.7L6,12.9l7.3-0.4L16,6z"/>
<path fill="#FED800" d="M16,32C7.2,32,0,24.8,0,16C0,7.2,7.2,0,16,0s16,7.2,16,16C32,24.8,24.8,32,16,32z M16,4C9.4,4,4,9.4,4,16
	c0,6.6,5.4,12,12,12s12-5.4,12-12C28,9.4,22.6,4,16,4z"/>
</svg>
